# xmcd CD database file
#
# Track frame offsets:
#	150
#	18657
#	59263
#	70106
#	81725
#	108162
#	114881
#	126880
#	148312
#	157950
#	178311
#	195816
#	206677
#	232024
#	261272
#
# Disc length: 3753 seconds
#
# Revision: 0
# Processed by: cddbd v1.5.2PL0 Copyright (c) Steve Scherf et al.
# Submitted via: CDex 1.70beta2
#
DISCID=d90ea70f
DTITLE=Ernst Reijseger - Feature
DYEAR=2014
DGENRE=Jazz
TTITLE0=For Pieter's Birth
TTITLE1=The Face of God
TTITLE2=Le Vieux Parle
TTITLE3=Nightsky
TTITLE4=Rainy Season
TTITLE5=Made of Light
TTITLE6=The big Country
TTITLE7=Heaven on Earth
TTITLE8=Incantation
TTITLE9=The Touch
TTITLE10=Elena
TTITLE11=Holding her first Balloon
TTITLE12=Tell me Everything
TTITLE13=Mutation
TTITLE14=Child's Footprint
EXTD=YEAR: 2014
EXTT0=
EXTT1=
EXTT2=
EXTT3=
EXTT4=
EXTT5=
EXTT6=
EXTT7=
EXTT8=
EXTT9=
EXTT10=
EXTT11=
EXTT12=
EXTT13=
EXTT14=
PLAYORDER=
